<svg xmlns="http://www.w3.org/2000/svg" viewBox="0 0 460 540" role="img" aria-labelledby="title desc">
  <title id="title">Black tee back</title>
  <desc id="desc">Back view of black Orlando Qazaqtary tee with event composition.</desc>
  <rect width="460" height="540" fill="#f8f1de"/>
  <g transform="translate(80 36)">
    <path d="M110 24h100l32 34 44 14-28 64-38-16v300H80V120L42 136 14 72l44-14z" fill="#171717"/>
    <path d="M136 24c0 14 12 26 24 26h0c12 0 24-12 24-26" fill="none" stroke="#2c2c2c" stroke-width="8"/>
    <path d="M106 126h140M118 116l14-14M246 116l-14-14" fill="none" stroke="#d6a93d" stroke-width="4" stroke-linecap="round"/>
    <text x="176" y="170" text-anchor="middle" fill="#ffffff" font-size="28" font-family="Manrope, Arial, sans-serif" font-weight="800">ORLANDO</text>
    <text x="176" y="208" text-anchor="middle" fill="#d6a93d" font-size="42" font-family="Manrope, Arial, sans-serif" font-weight="800">QAZAQTARY</text>
    <text x="176" y="260" text-anchor="middle" fill="#ffffff" font-size="20" font-family="Manrope, Arial, sans-serif" font-weight="700">NAURYZ VIBES</text>
    <text x="176" y="330" text-anchor="middle" fill="#d6a93d" font-size="76" font-family="Manrope, Arial, sans-serif" font-weight="800">2026</text>
    <path d="M92 360h168" stroke="#d6a93d" stroke-width="3"/>
  </g>
</svg>