<svg xmlns="http://www.w3.org/2000/svg" viewBox="0 0 720 920" role="img" aria-labelledby="title desc">
  <title id="title">Orlando Qazaqtary 2026 poster</title>
  <desc id="desc">Launch poster for Orlando Qazaqtary apparel marketplace.</desc>
  <rect width="720" height="920" fill="#fbf3df"/>
  <rect x="26" y="26" width="668" height="868" rx="28" fill="#fffaf0" stroke="#d6a93d" stroke-width="4"/>
  <text x="72" y="170" fill="#0b4f3f" font-size="96" font-family="Manrope, Arial, sans-serif" font-weight="800">ORLANDO</text>
  <text x="72" y="270" fill="#d6a93d" font-size="92" font-family="Manrope, Arial, sans-serif" font-weight="800">QAZAQTARY</text>
  <line x1="84" y1="322" x2="636" y2="322" stroke="#c8962a" stroke-width="4"/>
  <text x="250" y="390" fill="#0b4f3f" font-size="82" font-family="Manrope, Arial, sans-serif" font-weight="800">2026</text>
  <text x="92" y="478" fill="#0b4f3f" font-size="40" font-family="Manrope, Arial, sans-serif" font-weight="800">BIRGE - BIZ QAZAQPIZ!</text>
  <text x="92" y="530" fill="#1f2f2b" font-size="34" font-family="Manrope, Arial, sans-serif" font-weight="700">TOGETHER WE ARE STRONG!</text>
  <g transform="translate(84 620)">
    <g>
      <circle cx="44" cy="44" r="42" fill="#fff" stroke="#d6a93d" stroke-width="3"/>
      <path d="M18 48h52M26 28h36v34H26z" fill="none" stroke="#c8962a" stroke-width="4" stroke-linecap="round"/>
      <text x="44" y="112" text-anchor="middle" fill="#0b4f3f" font-size="18" font-family="Manrope, Arial, sans-serif" font-weight="800">BIRLIK</text>
      <text x="44" y="134" text-anchor="middle" fill="#5a6b66" font-size="14" font-family="Manrope, Arial, sans-serif">UNITY</text>
    </g>
    <g transform="translate(140 0)">
      <circle cx="44" cy="44" r="42" fill="#fff" stroke="#d6a93d" stroke-width="3"/>
      <path d="M44 12l12 22-12 42-12-42z" fill="none" stroke="#c8962a" stroke-width="4" stroke-linejoin="round"/>
      <text x="44" y="112" text-anchor="middle" fill="#0b4f3f" font-size="18" font-family="Manrope, Arial, sans-serif" font-weight="800">MADENIET</text>
      <text x="44" y="134" text-anchor="middle" fill="#5a6b66" font-size="14" font-family="Manrope, Arial, sans-serif">CULTURE</text>
    </g>
    <g transform="translate(280 0)">
      <circle cx="44" cy="44" r="42" fill="#fff" stroke="#d6a93d" stroke-width="3"/>
      <path d="M44 16l10 18 20 2-15 12 5 20-20-10-20 10 5-20-15-12 20-2z" fill="none" stroke="#c8962a" stroke-width="4" stroke-linejoin="round"/>
      <text x="44" y="112" text-anchor="middle" fill="#0b4f3f" font-size="18" font-family="Manrope, Arial, sans-serif" font-weight="800">DASTUR</text>
      <text x="44" y="134" text-anchor="middle" fill="#5a6b66" font-size="14" font-family="Manrope, Arial, sans-serif">TRADITION</text>
    </g>
    <g transform="translate(420 0)">
      <circle cx="44" cy="44" r="42" fill="#fff" stroke="#d6a93d" stroke-width="3"/>
      <path d="M22 70h44M26 70V44h10v26M42 70V28h10v42M58 70V36h8v34" fill="none" stroke="#0b4f3f" stroke-width="4" stroke-linecap="round"/>
      <path d="M74 58c0-10 8-18 18-18" fill="none" stroke="#c8962a" stroke-width="4"/>
      <text x="44" y="112" text-anchor="middle" fill="#0b4f3f" font-size="18" font-family="Manrope, Arial, sans-serif" font-weight="800">ORLANDO</text>
      <text x="44" y="134" text-anchor="middle" fill="#5a6b66" font-size="14" font-family="Manrope, Arial, sans-serif">OUR HOME</text>
    </g>
  </g>
  <text x="360" y="860" text-anchor="middle" fill="#0b4f3f" font-size="28" font-family="Manrope, Arial, sans-serif" font-weight="800">ORLANDO QAZAQTARY - ONE NATION, ONE HEART!</text>
</svg>